<svg xmlns="http://www.w3.org/2000/svg" width="24" height="24" viewBox="0 0 24 24" class="hpe-icon--filled">
  <g fill="none" fill-rule="evenodd">
    <path fill="#4285F4" fill-rule="nonzero" d="M23.52,12.2733333 C23.52,11.4213333 23.444,10.604 23.3013333,9.81866667 L12,9.81866667 L12,14.46 L18.4586667,14.46 C18.1885724,15.9435196 17.3233391,17.2519682 16.064,18.0813333 L16.064,21.0933333 L19.9413333,21.0933333 C22.2106667,19.004 23.52,15.9266667 23.52,12.2733333 Z"/>
    <path fill="#34A853" fill-rule="nonzero" d="M12,24 C15.24,24 17.956,22.9253333 19.9413333,21.0933333 L16.064,18.0813333 C14.9893333,18.8013333 13.6146667,19.228 12,19.228 C8.87466667,19.228 6.22933333,17.116 5.28533333,14.28 L1.276,14.28 L1.276,17.3893333 C3.31286391,21.4436129 7.4628209,24.0017985 12,24 Z"/>
    <path fill="#FBBC05" fill-rule="nonzero" d="M5.28533333,14.28 C5.03829017,13.545144 4.91132809,12.7752675 4.90933333,12 C4.90933333,11.2093333 5.04533333,10.44 5.28533333,9.72 L5.28533333,6.61066667 L1.276,6.61066667 C0.436073212,8.28297418 -0.000907623946,10.1286132 -1.18364575e-15,12 C-1.18364575e-15,13.936 0.464,15.7693333 1.276,17.3893333 L5.28533333,14.28 Z"/>
    <path fill="#EA4335" fill-rule="nonzero" d="M12,4.77333333 C13.7613333,4.77333333 15.344,5.37866667 16.5866667,6.56666667 L20.0293333,3.12666667 C17.9506667,1.188 15.2346667,-5.85790728e-16 12,-5.85790728e-16 C7.4628209,-0.00179849796 3.31286391,2.5563871 1.276,6.61066667 L5.28533333,9.72 C6.22933333,6.884 8.87466667,4.77333333 12,4.77333333 Z"/>
  </g>
</svg>
