<svg class="svg-icon-lib" aria-hidden="true" style="position: absolute;" data-enabled xmlns="http://www.w3.org/2000/svg">
<symbol id="icon-cart" viewBox="0 0 24 24"><title>icon-cart</title><path d="M5 5h17l-2 9H7L4 2H0m7 12l1 4h13m-2 5a1 1 0 1 1 0-2 1 1 0 0 1 0 2zM9 23a1 1 0 1 1 0-2 1 1 0 0 1 0 2z"/></symbol>
<symbol id="icon-search" viewBox="0 0 24 24"><title>icon-search</title><path d="M15 15l7 7-7-7zm-5.5 2a7.5 7.5 0 1 0 0-15 7.5 7.5 0 0 0 0 15z"/></symbol>
<symbol id="icon-social-linkedin-option" viewBox="0 0 24 24"><title>icon-social-linkedin-option</title><path fill-rule="evenodd" d="M22.037 22h-4.152v-6.496c0-1.55-.026-3.542-2.157-3.542-2.16 0-2.49 1.688-2.49 3.43V22H9.09V8.64h3.98v1.827h.058c.553-1.05 1.908-2.158 3.928-2.158 4.204 0 4.98 2.766 4.98 6.364V22zM4.409 6.816A2.407 2.407 0 0 1 2 4.407a2.408 2.408 0 1 1 2.41 2.408zM6.486 22H2.33V8.64h4.156V22z"/></symbol>
<symbol id="icon-user" viewBox="0 0 24 24"><title>icon-user</title><path d="M8 24v-5m8 5v-5M3 24v-5c0-4.97 4.03-8 9-8s9 3.03 9 8v5m-9-13a5 5 0 1 0 0-10 5 5 0 0 0 0 10z"/></symbol>
</svg>